<?xml version="1.0" encoding="utf-8"?>
<!-- Generator: Adobe Illustrator 16.0.0, SVG Export Plug-In . SVG Version: 6.00 Build 0)  -->
<!DOCTYPE svg PUBLIC "-//W3C//DTD SVG 1.1//EN" "http://www.w3.org/Graphics/SVG/1.1/DTD/svg11.dtd">
<svg version="1.1" id="Layer_1" xmlns="http://www.w3.org/2000/svg" xmlns:xlink="http://www.w3.org/1999/xlink" x="0px" y="0px"
	 width="200px" height="200px" viewBox="0 0 200 200" enable-background="new 0 0 200 200" xml:space="preserve">
<path fill="none" stroke="#FFFFFF" stroke-miterlimit="10" d="M88.303,128.715L5.001,97.931V47.729c0-4.034,3.27-7.301,7.301-7.301
	H88.3"/>
<path fill="none" stroke="#FFFFFF" stroke-miterlimit="10" d="M111.698,40.426H187.7c4.031,0,7.299,3.271,7.299,7.303v50.202
	l-83.301,30.784"/>
<path fill="none" stroke="#FFFFFF" stroke-miterlimit="10" d="M11.489,101.296v65.783c0,5.283,3.045,9.567,6.801,9.567h163.417
	c3.758,0,6.803-4.284,6.803-9.567v-65.783"/>
<line fill="none" stroke="#FFFFFF" stroke-miterlimit="10" x1="68.623" y1="25.299" x2="68.623" y2="40.426"/>
<line fill="none" stroke="#FFFFFF" stroke-miterlimit="10" x1="131.375" y1="40.426" x2="131.375" y2="25.299"/>
<path fill="none" stroke="#FFFFFF" stroke-miterlimit="10" d="M131.25,14.467h-62.5c-2.597,0-4.704,2.105-4.704,4.704v1.136
	c0,2.597,2.106,4.704,4.704,4.704h62.5c2.597,0,4.702-2.106,4.702-4.704v-1.136C135.953,16.573,133.847,14.467,131.25,14.467z"/>
<rect x="88.302" y="121.337" fill="none" stroke="#FFFFFF" stroke-miterlimit="10" width="23.396" height="23.397"/>
<polygon fill="none" stroke="#FFFFFF" stroke-miterlimit="10" points="111.698,35.263 88.302,35.263 93.861,121.337 
	106.136,121.337 "/>
</svg>
