<?xml version="1.0" encoding="utf-8"?>
<!-- Generator: Adobe Illustrator 16.0.0, SVG Export Plug-In . SVG Version: 6.00 Build 0)  -->
<!DOCTYPE svg PUBLIC "-//W3C//DTD SVG 1.1//EN" "http://www.w3.org/Graphics/SVG/1.1/DTD/svg11.dtd">
<svg version="1.1" id="Layer_1" xmlns="http://www.w3.org/2000/svg" xmlns:xlink="http://www.w3.org/1999/xlink" x="0px" y="0px"
	 width="40px" height="34px" viewBox="0 0 40 34" enable-background="new 0 0 40 34" xml:space="preserve">
<line fill="#FFFFFF" stroke="#FFFFFF" stroke-width="2" stroke-miterlimit="10" x1="14.299" y1="4.846" x2="14.299" y2="7.595"/>
<line fill="#FFFFFF" stroke="#FFFFFF" stroke-width="2" stroke-miterlimit="10" x1="25.702" y1="7.595" x2="25.702" y2="4.846"/>
<g>
	<defs>
		<rect id="SVGID_1_" x="2.288" y="2.427" width="35.425" height="30.37"/>
	</defs>
	<clipPath id="SVGID_2_">
		<use xlink:href="#SVGID_1_"  overflow="visible"/>
	</clipPath>
	<path clip-path="url(#SVGID_2_)" fill="#1E8900" d="M25.679,2.878H14.322c-0.472,0-0.855,0.382-0.855,0.854v0.207
		c0,0.472,0.383,0.854,0.855,0.854h11.356c0.472,0,0.854-0.383,0.854-0.854V3.732C26.533,3.26,26.15,2.878,25.679,2.878"/>
	<path clip-path="url(#SVGID_2_)" fill="#FFFFFF" stroke="#FFFFFF" stroke-width="2" stroke-miterlimit="10" d="M25.679,2.878
		H14.322c-0.472,0-0.855,0.382-0.855,0.854v0.207c0,0.472,0.383,0.854,0.855,0.854h11.356c0.472,0,0.854-0.383,0.854-0.854V3.732
		C26.533,3.26,26.15,2.878,25.679,2.878z"/>
	<rect x="17.875" y="22.297" clip-path="url(#SVGID_2_)" fill="#1E8900" width="4.251" height="4.251"/>
	
		<rect x="17.875" y="22.297" clip-path="url(#SVGID_2_)" fill="#FFFFFF" stroke="#FFFFFF" stroke-width="2" stroke-miterlimit="10" width="4.251" height="4.251"/>
	<path clip-path="url(#SVGID_2_)" fill="#1E8900" d="M35.936,7.595H23.872L23.04,20.493h0.89v2.478l13.333-4.928V8.921
		C37.263,8.189,36.668,7.595,35.936,7.595"/>
	<path clip-path="url(#SVGID_2_)" fill="#FFFFFF" stroke="#FFFFFF" stroke-width="2" stroke-miterlimit="10" d="M35.936,7.595
		H23.872L23.04,20.493h0.89v2.478l13.333-4.928V8.921C37.263,8.189,36.668,7.595,35.936,7.595z"/>
	<path clip-path="url(#SVGID_2_)" fill="#1E8900" d="M16.071,20.494h0.891L16.128,7.595H4.065c-0.732,0-1.327,0.594-1.327,1.327
		v9.122l13.333,4.928V20.494z"/>
	<path clip-path="url(#SVGID_2_)" fill="#FFFFFF" stroke="#FFFFFF" stroke-width="2" stroke-miterlimit="10" d="M16.071,20.494
		h0.891L16.128,7.595H4.065c-0.732,0-1.327,0.594-1.327,1.327v9.122l13.333,4.928V20.494z"/>
	<path clip-path="url(#SVGID_2_)" fill="#1E8900" d="M23.93,24.893v3.458h-7.858v-3.458L3.917,20.401v10.207
		c0,0.959,0.553,1.737,1.236,1.737h29.694c0.683,0,1.235-0.778,1.235-1.737V20.401L23.93,24.893z"/>
	<path clip-path="url(#SVGID_2_)" fill="#FFFFFF" stroke="#FFFFFF" stroke-width="2" stroke-miterlimit="10" d="M23.93,24.893v3.458
		h-7.858v-3.458L3.917,20.401v10.207c0,0.959,0.553,1.737,1.236,1.737h29.694c0.683,0,1.235-0.778,1.235-1.737V20.401L23.93,24.893z
		"/>
	<polygon clip-path="url(#SVGID_2_)" fill="#1E8900" points="21.232,20.494 22.126,6.656 17.875,6.656 18.769,20.494 	"/>
	<polygon clip-path="url(#SVGID_2_)" fill="#FFFFFF" stroke="#FFFFFF" stroke-width="2" stroke-miterlimit="10" points="
		21.232,20.494 22.126,6.656 17.875,6.656 18.769,20.494 	"/>
</g>
</svg>
