<?xml version="1.0" encoding="utf-8"?>
<!-- Generator: Adobe Illustrator 16.0.0, SVG Export Plug-In . SVG Version: 6.00 Build 0)  -->
<!DOCTYPE svg PUBLIC "-//W3C//DTD SVG 1.1//EN" "http://www.w3.org/Graphics/SVG/1.1/DTD/svg11.dtd">
<svg version="1.1" id="Layer_1" xmlns="http://www.w3.org/2000/svg" xmlns:xlink="http://www.w3.org/1999/xlink" x="0px" y="0px"
	 width="212px" height="33px" viewBox="0 0 212 33" enable-background="new 0 0 212 33" xml:space="preserve">
<g>
	<path fill="#D4D4D4" d="M1.085,9.082c0-0.273,0-0.568,0-0.827c0.75,0,1.695,0,2.586,0c0.689-0.036,1.38,0.04,2.045,0.225
		C6.74,8.8,7.438,9.746,7.44,10.819c-0.007,1.067-0.633,2.031-1.605,2.475c-0.583,0.252-1.214,0.377-1.849,0.364
		c-0.196,0-0.477,0-0.575,0v2.313h1.352c0,0.259,0,0.568,0,0.826H1.1c0-0.267,0-0.554,0-0.812l0.764-0.036
		c0.027-0.003,0.049-0.028,0.048-0.056V9.11L1.085,9.082z M3.426,12.67c0.042,0.103,0.315,0.118,0.603,0.118
		c0.42,0.01,0.833-0.111,1.184-0.343c0.475-0.357,0.737-0.929,0.7-1.52c0.069-0.978-0.667-1.824-1.644-1.893
		c-0.083-0.006-0.166-0.006-0.247,0C3.831,9.023,3.64,9.038,3.453,9.074L3.426,12.67z"/>
	<path fill="#D4D4D4" d="M15.688,15.949c0.027,0,0.05-0.022,0.05-0.049c0-0.003,0-0.005,0-0.007V9.095h-0.883
		c0-0.273,0-0.567,0-0.828h5.782c0.05,0.697,0.091,1.398,0.119,2.102c-0.273,0-0.616,0.078-0.931,0.105l-0.211-1.093
		c0-0.119-0.091-0.197-0.286-0.224c-0.196-0.028-0.947-0.063-1.787-0.063h-0.273v2.915h1.682c0.168,0,0.224-0.091,0.252-0.252
		l0.063-0.582c0.302,0,0.63,0,0.903,0c0,0.406,0,0.855,0,1.304v1.247c-0.287,0-0.603,0-0.903,0l-0.07-0.581
		c0-0.197-0.091-0.26-0.273-0.26c-0.498,0-1.038,0-1.64,0v2.803c0,0.238,0.057,0.272,0.7,0.272c0.542,0.019,1.083-0.011,1.619-0.091
		c0.134,0,0.196-0.104,0.253-0.251l0.406-1.143c0.315,0.049,0.644,0.119,0.932,0.182c-0.148,0.701-0.301,1.444-0.477,2.167
		c-0.631,0-2.376,0-4.205,0h-1.667c0-0.267,0-0.554,0-0.814L15.688,15.949z"/>
	<path fill="#D4D4D4" d="M28.8,9.082c0-0.273,0-0.553,0-0.827c0.799,0,1.801,0,2.733,0c0.627-0.03,1.256,0.037,1.864,0.196
		c0.969,0.205,1.688,1.023,1.766,2.011c-0.022,1.063-0.714,1.995-1.725,2.327v0.062c0.603,0.274,0.918,1.024,1.563,2.286
		c0.315,0.616,0.419,0.749,0.581,0.764l0.701,0.056c0,0.259,0,0.54,0,0.813c-0.238,0-0.645,0-0.917,0h-1.185
		c-0.42-0.575-1.121-2.222-1.478-2.923c-0.19-0.393-0.611-0.62-1.044-0.56c-0.188-0.018-0.379-0.018-0.567,0V15.9l0.946,0.041
		c0,0.259,0,0.539,0,0.813H28.8c0-0.274,0-0.554,0-0.813l0.756,0.006c0,0,0.049,0,0.049-0.04V9.108L28.8,9.082z M31.119,12.445
		c0.179,0.02,0.36,0.02,0.539,0c0.952,0.083,1.791-0.624,1.874-1.576c0.083-0.952-0.623-1.791-1.575-1.873
		c-0.065-0.006-0.129-0.008-0.194-0.007c-0.207-0.017-0.415,0-0.616,0.049L31.119,12.445z"/>
	<path fill="#D4D4D4" d="M43.676,9.074c0-0.266,0-0.553,0-0.812h1.591h2.985c0.54,0,0.904,0,1.206,0
		c0.065,0.747,0.119,1.496,0.161,2.249l-0.946,0.12l-0.196-1.234c0-0.133-0.077-0.211-0.274-0.224
		c-0.619-0.061-1.241-0.086-1.863-0.077h-0.196v3.167h1.71c0.238,0,0.288-0.077,0.315-0.253l0.077-0.602c0.302,0,0.617,0,0.904,0
		c0,0.436,0,0.903,0,1.353c0,0.449,0,0.889,0,1.26c-0.287,0-0.588,0-0.904,0l-0.048-0.658c0-0.182-0.091-0.253-0.33-0.253
		l-1.683-0.042v2.803h1.486c0,0.272,0,0.568,0,0.841h-2.179h-1.668c0-0.266,0-0.566,0-0.812l0.68,0.048c0,0,0.056,0,0.056-0.056
		V9.11L43.676,9.074z"/>
	<path fill="#D4D4D4" d="M58.118,15.949c0.027,0,0.05-0.022,0.05-0.049c0-0.003,0-0.005,0-0.007V9.095h-0.884
		c0-0.273,0-0.567,0-0.828h5.781c0.051,0.697,0.091,1.398,0.119,2.102c-0.273,0-0.617,0.078-0.933,0.105l-0.209-1.093
		c0-0.119-0.091-0.197-0.287-0.224c-0.196-0.028-0.947-0.063-1.788-0.063h-0.281v2.915h1.681c0.168,0,0.225-0.091,0.252-0.252
		l0.063-0.582c0.302,0,0.63,0,0.904,0c0,0.406,0,0.855,0,1.304v1.247c-0.287,0-0.602,0-0.904,0l-0.048-0.616
		c0-0.196-0.091-0.26-0.273-0.26c-0.498,0-1.037,0-1.64,0v2.804c0,0.239,0.049,0.273,0.701,0.273
		c0.541,0.019,1.083-0.012,1.619-0.091c0.132,0,0.195-0.104,0.252-0.252l0.406-1.142c0.315,0.05,0.645,0.12,0.932,0.182
		c-0.148,0.702-0.302,1.444-0.47,2.166c-0.63,0-2.375,0-4.204,0h-1.661c0-0.267,0-0.554,0-0.814L58.118,15.949z"/>
	<path fill="#D4D4D4" d="M71.145,12.999c-0.042-1.498,0.612-2.929,1.772-3.875c0.885-0.678,1.976-1.034,3.09-1.009
		c0.575-0.02,1.148,0.061,1.696,0.238c0.062,0.799,0.12,1.619,0.154,2.418c-0.315,0.048-0.701,0.091-1.009,0.132l-0.252-1.401
		c0-0.091-0.056-0.161-0.105-0.183c-0.268-0.155-0.574-0.228-0.883-0.21c-0.65-0.009-1.275,0.244-1.737,0.7
		c-0.702,0.762-1.08,1.768-1.051,2.804c-0.089,0.896,0.198,1.79,0.791,2.466c0.517,0.493,1.207,0.762,1.919,0.75
		c0.758-0.031,1.504-0.19,2.208-0.47c0.076,0.309,0.131,0.623,0.168,0.939c-0.854,0.358-1.765,0.567-2.691,0.616
		c-0.942,0.028-1.868-0.247-2.642-0.784c-0.94-0.754-1.476-1.905-1.443-3.112L71.145,12.999z"/>
	<path fill="#D4D4D4" d="M88.18,15.949c0.027,0.004,0.052-0.014,0.056-0.042c0.001-0.004,0.001-0.009,0-0.014v-6.77
		C87.768,9.11,87.3,9.127,86.834,9.172c-0.225,0-0.274,0.119-0.301,0.252L86.316,10.7c-0.33,0-0.701-0.055-1.01-0.09
		c0.049-0.785,0.091-1.591,0.148-2.369h1.219h2.446c0.393,0,1.982,0,2.313,0h1.184c0.056,0.778,0.092,1.562,0.119,2.354
		c-0.315,0.042-0.7,0.063-1.022,0.104l-0.196-1.275c0-0.146-0.078-0.224-0.301-0.238c-0.465-0.062-0.934-0.083-1.402-0.063v6.79
		l1.093,0.042c0,0.259,0,0.554,0,0.827H89.09h-1.849c0-0.272,0-0.553,0-0.827L88.18,15.949z"/>
	<path fill="#D4D4D4" d="M130.93,15.949c0.028,0,0.052-0.022,0.052-0.049c0-0.003,0-0.005,0-0.007v-6.77
		c-0.468-0.013-0.937,0.003-1.403,0.049c-0.222,0-0.272,0.119-0.302,0.252l-0.216,1.275c-0.328,0-0.701-0.055-1.009-0.09
		c0.056-0.785,0.091-1.591,0.146-2.369h1.221h2.445c0.392,0,1.983,0,2.312,0h1.193c0.055,0.778,0.092,1.562,0.119,2.354
		c-0.314,0.042-0.701,0.063-1.024,0.104l-0.195-1.275c0-0.146-0.078-0.224-0.302-0.238c-0.463-0.062-0.933-0.083-1.403-0.063v6.79
		l1.095,0.042c0,0.259,0,0.554,0,0.827h-1.814h-1.849c0-0.272,0-0.553,0-0.827L130.93,15.949z"/>
	<path fill="#D4D4D4" d="M142.914,9.074c0-0.266,0-0.567,0-0.827h1.771h1.711c0,0.267,0,0.568,0,0.827l-0.945,0.042c0,0,0,0,0,0.056
		l-0.042,6.741l1.007,0.042c0,0.272,0,0.566,0,0.841h-1.73h-1.736c0-0.274,0-0.569,0-0.828l0.827-0.02c0,0,0.041,0,0.041-0.056V9.11
		L142.914,9.074z"/>
	<path fill="#D4D4D4" d="M154.112,9.11c0-0.274,0-0.589,0-0.869h2.718c0.63,1.576,1.534,4.07,2.369,6.243h0.09
		c0.785-2.102,1.668-4.442,2.377-6.243h2.55c0,0.266,0,0.582,0,0.854l-0.763,0.042c0,0-0.044,0-0.044,0.063c0,2.054,0,4.563,0,6.727
		h0.828c0,0.26,0,0.568,0,0.828h-3.167c0-0.266,0-0.568,0-0.813l0.926,0.007c0.025,0,0.049-0.022,0.049-0.048
		c0-0.003,0-0.005,0-0.008c0-1.731,0-3.813-0.042-5.69h-0.091c-1.017,2.733-1.829,4.639-2.51,6.146h-0.812
		c-0.751-1.682-1.563-3.707-2.481-6.265h-0.104c0,1.919-0.058,3.966-0.077,5.83l1.065,0.042c0,0.259,0,0.567,0,0.827h-2.931
		c0-0.265,0-0.567,0-0.813l0.785-0.02c0.042,0,0.058,0,0.058-0.056c0-2.061,0.041-4.702,0.055-6.741L154.112,9.11z"/>
	<path fill="#D4D4D4" d="M172.001,9.074c0-0.266,0-0.567,0-0.827h1.773h1.71c0,0.267,0,0.568,0,0.827l-0.945,0.042c0,0,0,0,0,0.056
		l-0.044,6.741l1.012,0.042c0,0.272,0,0.566,0,0.841h-1.738h-1.73c0-0.274,0-0.569,0-0.828l0.883-0.042c0,0,0.041,0,0.041-0.056
		V9.11L172.001,9.074z"/>
	<path fill="#D4D4D4" d="M183.942,15.949c0.026,0.004,0.052-0.014,0.054-0.042c0.004-0.004,0.004-0.009,0-0.014v-6.77h-0.881
		c0-0.267,0-0.567,0-0.813h2.165c1.289,1.878,3.007,4.478,4.31,6.503h0.078c0-1.878,0-3.771-0.058-5.648h-1.111
		c0-0.274,0-0.568,0-0.828h1.666h1.318c0,0.267,0,0.554,0,0.813l-0.701,0.042c0,0-0.044,0-0.044,0.062l-0.012,7.449
		c-0.346,0.124-0.712,0.185-1.081,0.183c-1.155-1.521-2.801-3.834-4.455-6.307h-0.092c0,1.788,0,3.503,0,5.305h1.171
		c0,0.26,0,0.568,0,0.842h-1.802h-1.246c0-0.267,0-0.567,0-0.827L183.942,15.949z"/>
	<path fill="#D4D4D4" d="M204.803,9.558c-0.015-0.074-0.052-0.142-0.105-0.196c-0.326-0.226-0.717-0.338-1.112-0.315
		c-0.674-0.009-1.323,0.242-1.816,0.701c-0.736,0.762-1.125,1.793-1.078,2.851c-0.072,0.939,0.229,1.87,0.84,2.586
		c0.537,0.587,1.307,0.911,2.103,0.883c0.482,0,0.826-0.132,0.826-0.238v-2.039h-1.246c0-0.273,0-0.589,0-0.855h3.454
		c0,0.259,0,0.582,0,0.855h-0.616c-0.042,0-0.05,0-0.05,0.048l-0.042,2.628c-0.757,0.34-1.587,0.495-2.417,0.448
		c-1.112,0.068-2.214-0.247-3.123-0.89c-0.959-0.793-1.493-1.987-1.446-3.231c-0.028-1.512,0.696-2.941,1.934-3.812
		c0.903-0.586,1.96-0.889,3.034-0.868c0.674-0.027,1.345,0.089,1.972,0.343c0.034,0.778,0.089,1.577,0.118,2.354
		c-0.332,0.049-0.701,0.078-1.023,0.105L204.803,9.558z"/>
	<path fill="#D4D4D4" d="M209.246,8.611h-0.38V8.31h1.164v0.301h-0.387v1.087h-0.403L209.246,8.611z M210.359,8.311h0.518
		l0.303,0.806l0.302-0.806H212v1.401h-0.364V8.802l0,0l-0.302,0.911h-0.286l-0.303-0.911l0,0v0.911h-0.398L210.359,8.311z"/>
	<path fill="#D4D4D4" d="M111.542,0h-8.107v19.875h5.83V7.651h-1.927c-0.762,0.134-1.489-0.376-1.623-1.139
		c-0.133-0.762,0.377-1.489,1.139-1.622c0.16-0.027,0.324-0.027,0.483,0h6.735c0.773,0,1.4,0.627,1.4,1.401
		c0.002,0.367-0.145,0.717-0.407,0.975c-0.262,0.261-0.616,0.407-0.986,0.406h-1.851v5.207h0.23c4.576,0,7.303-2.438,7.303-6.517
		C119.733,4.435,118.937,0,111.542,0z"/>
	<path fill="#D4D4D4" d="M23.137,26.459H24.3c1.079,0,1.506,0.491,1.506,1.255c0,0.766-0.701,1.255-1.499,1.255h-0.42v1.611h-0.792
		L23.137,26.459z M24.28,28.353c0.363,0.023,0.676-0.252,0.699-0.616c0-0.007,0-0.013,0.001-0.022
		c0.006-0.345-0.268-0.628-0.612-0.636c-0.03-0.001-0.06,0.002-0.089,0.005h-0.406v1.27H24.28L24.28,28.353z"/>
	<path fill="#D4D4D4" d="M30.383,26.459h2.207v0.661h-1.443v1.058h1.402v0.616h-1.402v1.135h1.465v0.651h-2.264L30.383,26.459z"/>
	<path fill="#D4D4D4" d="M37.418,26.459h1.304c0.995,0,1.401,0.541,1.401,1.192c0.001,0.494-0.324,0.932-0.799,1.072l1.171,1.535
		l-0.701,0.404l-1.127-1.604c-0.061-0.092-0.165-0.146-0.274-0.14h-0.238v1.646h-0.778L37.418,26.459z M38.666,28.303
		c0.342,0.042,0.654-0.2,0.696-0.542c0.003-0.031,0.005-0.063,0.004-0.096c0-0.393-0.308-0.597-0.7-0.597h-0.441v1.234H38.666
		L38.666,28.303z"/>
	<path fill="#D4D4D4" d="M45.176,29.753c0.205,0.151,0.446,0.25,0.699,0.282c0.328,0.034,0.621-0.204,0.656-0.529
		c0.003-0.023,0.004-0.045,0.004-0.067c0-0.819-1.689-0.47-1.689-1.877c0.022-0.69,0.597-1.231,1.286-1.209
		c0.039,0.003,0.079,0.005,0.116,0.011c0.412,0.01,0.813,0.129,1.163,0.345l-0.322,0.545c-0.231-0.157-0.499-0.252-0.778-0.273
		c-0.343,0-0.701,0.182-0.701,0.554c0,0.812,1.724,0.554,1.724,1.871c-0.007,0.704-0.584,1.27-1.289,1.263
		c-0.014,0-0.028-0.003-0.043-0.003c-0.396-0.002-0.782-0.11-1.121-0.314L45.176,29.753z"/>
	<path fill="#D4D4D4" d="M54.082,26.363c1.159-0.06,2.146,0.833,2.205,1.993c0.002,0.049,0.003,0.098,0.002,0.15
		c0.009,1.184-0.945,2.15-2.129,2.157c-0.027,0.003-0.053,0-0.079,0c-1.16,0.059-2.147-0.835-2.206-1.994
		c-0.002-0.049-0.003-0.099-0.002-0.149c0.003-1.196,0.976-2.162,2.172-2.159C54.058,26.361,54.07,26.361,54.082,26.363z
		 M54.082,30.033c0.796-0.021,1.425-0.686,1.403-1.481c0-0.017-0.001-0.031-0.001-0.045c0.069-0.771-0.499-1.452-1.271-1.522
		c-0.044-0.004-0.087-0.005-0.131-0.005c-0.801,0.023-1.429,0.694-1.404,1.497c0,0.01,0.001,0.019,0.002,0.03
		c-0.069,0.77,0.499,1.453,1.271,1.521C53.994,30.031,54.038,30.033,54.082,30.033z"/>
	<path fill="#D4D4D4" d="M60.999,26.579l0.7-0.216l1.927,3.16l0,0l-0.035-3.064h0.764v3.996l-0.771,0.217l-1.877-3.139l0,0
		l0.056,3.04h-0.763V26.579z"/>
	<path fill="#D4D4D4" d="M69.316,26.579l0.701-0.216l1.927,3.16l0,0l-0.035-3.064h0.764l-0.035,3.996l-0.771,0.217l-1.878-3.139l0,0
		l0.056,3.04h-0.763L69.316,26.579z"/>
	<path fill="#D4D4D4" d="M77.633,26.459h2.208v0.661h-1.443v1.058h1.4v0.616h-1.4v1.135h1.464v0.651h-2.249L77.633,26.459z"/>
	<path fill="#D4D4D4" d="M84.696,26.459h0.764v3.47h1.557v0.651h-2.375L84.696,26.459z"/>
	<path fill="#D4D4D4" d="M97.269,29.753c0.207,0.151,0.447,0.25,0.701,0.282c0.326,0.034,0.62-0.204,0.654-0.529
		c0.003-0.023,0.003-0.045,0.003-0.067c0-0.819-1.695-0.47-1.695-1.877c0.021-0.69,0.599-1.231,1.287-1.209
		c0.039,0.003,0.077,0.005,0.115,0.011c0.411,0.01,0.813,0.129,1.163,0.345l-0.323,0.545c-0.231-0.157-0.499-0.252-0.778-0.273
		c-0.342,0-0.7,0.182-0.7,0.554c0,0.812,1.731,0.554,1.731,1.871c-0.007,0.704-0.584,1.27-1.287,1.263
		c-0.017,0-0.034-0.003-0.051-0.003c-0.395-0.002-0.783-0.11-1.122-0.314L97.269,29.753z"/>
	<path fill="#D4D4D4" d="M104.226,26.459h2.208v0.661h-1.444v1.058h1.402v0.616h-1.402v1.135h1.466v0.651h-2.271L104.226,26.459z"/>
	<path fill="#D4D4D4" d="M111.255,26.459h1.305c0.994,0,1.399,0.541,1.399,1.192c0.002,0.494-0.323,0.932-0.797,1.072l1.186,1.527
		l-0.702,0.412l-1.142-1.591c-0.063-0.089-0.164-0.143-0.275-0.14h-0.237v1.647h-0.779L111.255,26.459z M112.48,28.316
		c0.343,0.042,0.654-0.198,0.696-0.541c0.005-0.032,0.005-0.064,0.005-0.096c0-0.396-0.308-0.598-0.701-0.598h-0.439v1.234H112.48
		L112.48,28.316z"/>
	<path fill="#D4D4D4" d="M118.354,26.606l0.764-0.245l1.058,3.237l0,0l1.179-3.237l0.733,0.245l-1.567,3.96h-0.703L118.354,26.606z"
		/>
	<path fill="#D4D4D4" d="M126.628,26.459h0.765l-0.035,4.121h-0.764L126.628,26.459z"/>
	<path fill="#D4D4D4" d="M135.626,30.251c-0.384,0.264-0.843,0.403-1.31,0.399c-1.162,0.021-2.119-0.906-2.138-2.067
		c0-0.011,0-0.022,0-0.035c-0.058-1.131,0.813-2.098,1.944-2.155c0.053-0.004,0.106-0.004,0.158-0.002
		c0.491-0.005,0.966,0.164,1.345,0.475l-0.335,0.534c-0.283-0.223-0.63-0.345-0.989-0.351c-0.751,0.009-1.353,0.623-1.343,1.376
		c0,0.028,0.002,0.06,0.005,0.088c-0.029,0.763,0.561,1.409,1.325,1.45c0.364,0.017,0.725-0.076,1.036-0.266L135.626,30.251z"/>
	<path fill="#D4D4D4" d="M140.215,26.459h2.201v0.661h-1.443v1.058h1.401v0.616h-1.401v1.135h1.465v0.651h-2.243L140.215,26.459z"/>
	<path fill="#D4D4D4" d="M147.279,29.753c0.206,0.151,0.448,0.247,0.701,0.282c0.328,0.037,0.622-0.196,0.662-0.522
		c0.003-0.025,0.004-0.051,0.004-0.074c0-0.819-1.696-0.47-1.696-1.879c0.021-0.688,0.598-1.229,1.287-1.207
		c0.038,0.003,0.078,0.005,0.115,0.011c0.409,0.01,0.811,0.128,1.161,0.343l-0.321,0.547c-0.231-0.158-0.499-0.252-0.779-0.273
		c-0.342,0-0.699,0.182-0.699,0.554c0,0.812,1.731,0.551,1.731,1.87c-0.008,0.705-0.583,1.269-1.288,1.264
		c-0.019,0-0.037-0.003-0.057-0.004c-0.397-0.001-0.784-0.109-1.121-0.313L147.279,29.753z"/>
	<path fill="#D4D4D4" d="M154.181,29.774h0.884l-0.532,1.513h-0.386L154.181,29.774z"/>
	<path fill="#D4D4D4" d="M165.499,26.459h0.764l-0.062,4.107h-0.767L165.499,26.459z"/>
	<path fill="#D4D4D4" d="M171.189,26.579l0.702-0.216l1.925,3.16l0,0l-0.028-3.064h0.766l-0.037,3.996l-0.771,0.217l-1.879-3.139
		l0,0l0.059,3.04h-0.766L171.189,26.579z"/>
	<path fill="#D4D4D4" d="M182.794,30.251c-0.387,0.264-0.844,0.403-1.312,0.399c-1.159,0.021-2.117-0.906-2.136-2.067
		c0-0.011,0-0.022,0-0.035c-0.063-1.127,0.801-2.093,1.93-2.155c0.055-0.004,0.114-0.004,0.172-0.002
		c0.49-0.005,0.967,0.164,1.346,0.475l-0.338,0.534c-0.281-0.223-0.629-0.345-0.987-0.351c-0.75,0.012-1.349,0.632-1.335,1.383
		c0,0.026,0.001,0.053,0.003,0.081c-0.027,0.761,0.557,1.404,1.318,1.45c0.364,0.017,0.727-0.076,1.037-0.266L182.794,30.251z"/>
	<path fill="#D4D4D4" d="M187.48,29.774h0.799v0.799h-0.799V29.774z"/>
</g>
</svg>
