<?xml version="1.0" encoding="utf-8"?>
<!-- Generator: Adobe Illustrator 16.0.0, SVG Export Plug-In . SVG Version: 6.00 Build 0)  -->
<!DOCTYPE svg PUBLIC "-//W3C//DTD SVG 1.1//EN" "http://www.w3.org/Graphics/SVG/1.1/DTD/svg11.dtd">
<svg version="1.1" id="Layer_1" xmlns="http://www.w3.org/2000/svg" xmlns:xlink="http://www.w3.org/1999/xlink" x="0px" y="0px"
	 width="5.047px" height="5.047px" viewBox="0 0 5.047 5.047" enable-background="new 0 0 5.047 5.047" xml:space="preserve">
<title>instagram</title>
<g id="CF8lTJ.tif">
	<path fill="#FFFFFF" d="M4.548,5.046H0.501C0.356,5.02,0.226,4.942,0.13,4.831C0.066,4.743,0.021,4.641,0,4.534V0.514
		C0.004,0.501,0.008,0.49,0.011,0.479C0.039,0.315,0.137,0.173,0.28,0.091C0.355,0.055,0.434,0.024,0.514,0h4.02
		c0.109,0.021,0.212,0.066,0.302,0.133c0.109,0.095,0.184,0.224,0.211,0.365v4.047C5.011,4.642,4.968,4.734,4.919,4.823
		C4.829,4.944,4.696,5.024,4.548,5.046z M4.029,2.138C4.153,2.601,4.05,3.095,3.755,3.472c-0.289,0.388-0.748,0.613-1.23,0.603
		C2.111,4.085,1.712,3.923,1.425,3.626C1.029,3.241,0.871,2.673,1.01,2.138H0.583c0,0.027,0,0.051,0,0.074c0,0.675,0,1.35,0,2.022
		c0,0.158,0.072,0.231,0.233,0.231h3.421c0.16,0,0.232-0.071,0.232-0.231c0-0.677,0-1.354,0-2.03c0-0.021,0-0.041,0-0.066H4.029z
		 M3.497,2.522c0-0.536-0.437-0.971-0.973-0.968c-0.536,0.002-0.97,0.437-0.968,0.973C1.558,3.062,1.99,3.495,2.524,3.495
		C3.06,3.499,3.495,3.066,3.497,2.532C3.497,2.528,3.497,2.525,3.497,2.522z M4.468,1.066c0-0.099,0-0.198,0-0.296
		C4.47,0.665,4.384,0.577,4.279,0.577c-0.001,0-0.002,0-0.003,0c-0.195,0-0.391,0-0.586,0c-0.105-0.004-0.193,0.08-0.195,0.187
		c0,0.003,0,0.006,0,0.009c0,0.193,0,0.386,0,0.579C3.493,1.456,3.576,1.544,3.682,1.546c0.003,0,0.007,0,0.009,0H4.27
		C4.376,1.55,4.464,1.468,4.468,1.362c0-0.006,0-0.011,0-0.017c0.002-0.087,0-0.183,0-0.275V1.066z"/>
</g>
</svg>
