<?xml version="1.0" encoding="utf-8"?>
<!-- Generator: Adobe Illustrator 16.0.0, SVG Export Plug-In . SVG Version: 6.00 Build 0)  -->
<!DOCTYPE svg PUBLIC "-//W3C//DTD SVG 1.1//EN" "http://www.w3.org/Graphics/SVG/1.1/DTD/svg11.dtd">
<svg version="1.1" id="Layer_1" xmlns="http://www.w3.org/2000/svg" xmlns:xlink="http://www.w3.org/1999/xlink" x="0px" y="0px"
	 width="4.787px" height="5.207px" viewBox="0 0 4.787 5.207" enable-background="new 0 0 4.787 5.207" xml:space="preserve">
<title>linkedin</title>
<path fill="#FFFFFF" d="M0.237,0.222C0.12,0.342,0.056,0.502,0.06,0.67C0.057,0.836,0.122,0.996,0.24,1.112
	c0.117,0.121,0.278,0.187,0.446,0.183c0.169,0.002,0.332-0.063,0.45-0.183c0.12-0.114,0.187-0.276,0.184-0.444
	c0.001-0.348-0.28-0.63-0.628-0.631c-0.004,0-0.008,0-0.012,0C0.513,0.034,0.352,0.101,0.237,0.222z M1.693,1.67v3.5H2.72V2.926
	c0.076-0.07,0.163-0.129,0.257-0.172C3.062,2.715,3.151,2.69,3.243,2.681C3.349,2.67,3.454,2.691,3.544,2.744
	C3.599,2.767,3.642,2.808,3.663,2.86c0.033,0.052,0.055,0.111,0.059,0.173V5.17h1.006V3.033C4.724,2.799,4.659,2.57,4.538,2.371
	C4.421,2.162,4.249,1.989,4.04,1.873c-0.207-0.1-0.432-0.154-0.662-0.164C3.153,1.694,2.925,1.737,2.72,1.836V1.67H1.693z
	 M1.196,5.17v-3.5H0.167v3.5H1.196z"/>
</svg>
