<?xml version="1.0" encoding="utf-8"?>
<!-- Generator: Adobe Illustrator 16.0.0, SVG Export Plug-In . SVG Version: 6.00 Build 0)  -->
<!DOCTYPE svg PUBLIC "-//W3C//DTD SVG 1.1//EN" "http://www.w3.org/Graphics/SVG/1.1/DTD/svg11.dtd">
<svg version="1.1" id="Layer_1" xmlns="http://www.w3.org/2000/svg" xmlns:xlink="http://www.w3.org/1999/xlink" x="0px" y="0px"
	 width="332px" height="49px" viewBox="0 0 332 49" enable-background="new 0 0 332 49" xml:space="preserve">
<g>
	<path fill="#010101" d="M1.014,15.251c0-0.428,0-0.89,0-1.297c1.176,0,2.661,0,4.058,0c1.083-0.057,2.167,0.062,3.21,0.353
		c1.606,0.503,2.702,1.988,2.706,3.671c-0.012,1.675-0.995,3.188-2.519,3.884c-0.916,0.395-1.905,0.591-2.902,0.572
		c-0.307,0-0.749,0-0.902,0v3.629h2.123c0,0.407,0,0.891,0,1.298H1.037c0-0.42,0-0.87,0-1.276l1.199-0.055
		c0.043-0.006,0.078-0.044,0.077-0.088V15.296L1.014,15.251z M4.687,20.883c0.066,0.163,0.495,0.186,0.946,0.186
		c0.66,0.015,1.309-0.174,1.859-0.539c0.745-0.561,1.157-1.457,1.098-2.386c0.108-1.534-1.048-2.863-2.581-2.969
		c-0.129-0.01-0.259-0.01-0.387,0c-0.299-0.015-0.599,0.007-0.892,0.064L4.687,20.883z"/>
	<path fill="#010101" d="M23.931,26.029c0.042,0,0.077-0.034,0.077-0.078c0-0.003,0-0.007-0.001-0.01V15.273h-1.385
		c0-0.429,0-0.891,0-1.298h9.073c0.08,1.093,0.143,2.193,0.187,3.298c-0.428,0-0.968,0.122-1.462,0.167l-0.33-1.716
		c0-0.187-0.144-0.309-0.45-0.352c-0.309-0.043-1.485-0.098-2.805-0.098h-0.429v4.575h2.639c0.265,0,0.352-0.144,0.396-0.396
		l0.099-0.914c0.473,0,0.989,0,1.418,0c0,0.638,0,1.341,0,2.046v1.957c-0.451,0-0.946,0-1.418,0l-0.11-0.912
		c0-0.309-0.144-0.407-0.428-0.407c-0.781,0-1.628,0-2.575,0v4.399c0,0.374,0.09,0.428,1.1,0.428c0.85,0.029,1.699-0.018,2.54-0.144
		c0.209,0,0.308-0.164,0.397-0.395l0.638-1.793c0.495,0.078,1.011,0.187,1.462,0.286c-0.232,1.099-0.473,2.266-0.749,3.398
		c-0.989,0-3.728,0-6.597,0h-2.617c0-0.418,0-0.869,0-1.277L23.931,26.029z"/>
	<path fill="#010101" d="M44.505,15.251c0-0.428,0-0.868,0-1.297c1.254,0,2.827,0,4.29,0c0.984-0.047,1.972,0.058,2.924,0.307
		c1.521,0.322,2.649,1.606,2.771,3.157c-0.034,1.667-1.12,3.131-2.705,3.65v0.098c0.945,0.429,1.44,1.606,2.452,3.586
		c0.495,0.967,0.66,1.176,0.912,1.199l1.101,0.088c0,0.406,0,0.847,0,1.276c-0.374,0-1.012,0-1.44,0h-1.858
		c-0.66-0.902-1.759-3.487-2.32-4.587c-0.298-0.616-0.959-0.972-1.639-0.878c-0.296-0.027-0.594-0.027-0.89,0v4.102l1.485,0.064
		c0,0.406,0,0.846,0,1.275h-5.082c0-0.43,0-0.869,0-1.275l1.188,0.011c0,0,0.077,0,0.077-0.063V15.294L44.505,15.251z M48.146,20.53
		c0.281,0.032,0.565,0.032,0.846,0c1.494,0.129,2.811-0.979,2.94-2.474c0.13-1.495-0.977-2.81-2.472-2.939
		c-0.101-0.008-0.202-0.012-0.304-0.01c-0.325-0.026-0.651,0-0.967,0.077L48.146,20.53z"/>
	<path fill="#010101" d="M67.851,15.24c0-0.417,0-0.867,0-1.274h2.496h4.685c0.847,0,1.418,0,1.892,0
		c0.103,1.172,0.187,2.349,0.253,3.528l-1.485,0.188l-0.308-1.936c0-0.208-0.121-0.331-0.429-0.352
		c-0.972-0.096-1.948-0.135-2.925-0.121h-0.307v4.971h2.683c0.375,0,0.451-0.121,0.495-0.397l0.12-0.945c0.474,0,0.968,0,1.418,0
		c0,0.683,0,1.417,0,2.123c0,0.705,0,1.396,0,1.979c-0.45,0-0.923,0-1.418,0l-0.076-1.033c0-0.285-0.143-0.397-0.517-0.397
		l-2.64-0.066v4.399h2.332c0,0.427,0,0.891,0,1.319h-3.419h-2.618c0-0.416,0-0.889,0-1.273l1.067,0.076c0,0,0.088,0,0.088-0.088
		V15.296L67.851,15.24z"/>
	<path fill="#010101" d="M90.516,26.029c0.042,0,0.077-0.034,0.077-0.078c0-0.003,0-0.007,0-0.01V15.273h-1.387
		c0-0.429,0-0.891,0-1.298h9.073c0.081,1.093,0.143,2.193,0.187,3.298c-0.429,0-0.968,0.122-1.463,0.167l-0.329-1.716
		c0-0.187-0.143-0.309-0.45-0.352c-0.308-0.043-1.486-0.098-2.806-0.098h-0.44v4.575h2.639c0.264,0,0.352-0.144,0.396-0.396
		l0.099-0.914c0.473,0,0.99,0,1.418,0c0,0.638,0,1.341,0,2.046v1.957c-0.451,0-0.946,0-1.418,0l-0.077-0.967
		c0-0.308-0.142-0.408-0.428-0.408c-0.781,0-1.628,0-2.573,0v4.4c0,0.375,0.077,0.429,1.1,0.429c0.849,0.029,1.699-0.019,2.54-0.143
		c0.208,0,0.307-0.165,0.397-0.397l0.637-1.792c0.495,0.077,1.012,0.188,1.463,0.286c-0.231,1.101-0.473,2.265-0.737,3.398
		c-0.989,0-3.728,0-6.597,0h-2.607c0-0.417,0-0.869,0-1.276L90.516,26.029z"/>
	<path fill="#010101" d="M110.957,21.398c-0.066-2.349,0.962-4.595,2.783-6.081c1.389-1.063,3.1-1.622,4.849-1.583
		c0.902-0.031,1.802,0.096,2.661,0.374c0.099,1.254,0.188,2.541,0.242,3.794c-0.494,0.075-1.1,0.144-1.583,0.208l-0.396-2.198
		c0-0.143-0.088-0.253-0.166-0.287c-0.42-0.243-0.901-0.357-1.385-0.329c-1.02-0.015-2.002,0.382-2.726,1.099
		c-1.102,1.195-1.694,2.774-1.649,4.399c-0.14,1.406,0.311,2.809,1.242,3.87c0.81,0.773,1.893,1.195,3.012,1.177
		c1.189-0.048,2.359-0.299,3.465-0.737c0.119,0.485,0.207,0.978,0.264,1.474c-1.341,0.563-2.77,0.892-4.223,0.968
		c-1.478,0.043-2.931-0.39-4.146-1.231c-1.476-1.184-2.316-2.99-2.265-4.883L110.957,21.398z"/>
	<path fill="#010101" d="M137.69,26.029c0.042,0.007,0.081-0.021,0.088-0.065c0.001-0.008,0.001-0.015,0-0.022V15.317
		c-0.734-0.02-1.469,0.006-2.199,0.077c-0.352,0-0.43,0.187-0.473,0.396l-0.341,2.001c-0.517,0-1.1-0.086-1.584-0.142
		c0.077-1.231,0.143-2.496,0.231-3.716h1.913h3.839c0.616,0,3.111,0,3.628,0h1.859c0.088,1.22,0.144,2.451,0.187,3.694
		c-0.495,0.065-1.1,0.099-1.605,0.164l-0.307-2.001c0-0.23-0.122-0.353-0.473-0.374c-0.729-0.098-1.465-0.131-2.2-0.099v10.655
		l1.715,0.066c0,0.407,0,0.869,0,1.297h-2.848h-2.902c0-0.428,0-0.866,0-1.297L137.69,26.029z"/>
	<path fill="#010101" d="M204.777,26.029c0.045,0,0.08-0.034,0.08-0.078c0-0.003,0-0.007,0-0.01V15.317
		c-0.734-0.02-1.469,0.005-2.199,0.077c-0.352,0-0.43,0.187-0.475,0.396l-0.34,2.001c-0.516,0-1.1-0.086-1.582-0.142
		c0.086-1.231,0.141-2.496,0.229-3.716h1.916h3.838c0.615,0,3.113,0,3.627,0h1.871c0.088,1.22,0.145,2.451,0.188,3.694
		c-0.494,0.065-1.1,0.099-1.607,0.164l-0.307-2.001c0-0.23-0.121-0.353-0.473-0.374c-0.727-0.098-1.463-0.131-2.201-0.099v10.655
		l1.717,0.066c0,0.407,0,0.869,0,1.297h-2.848h-2.902c0-0.428,0-0.866,0-1.297L204.777,26.029z"/>
	<path fill="#010101" d="M223.584,15.24c0-0.417,0-0.89,0-1.297h2.781h2.684c0,0.418,0,0.892,0,1.297l-1.484,0.067c0,0,0,0,0,0.087
		l-0.066,10.579l1.582,0.066c0,0.428,0,0.889,0,1.321h-2.715h-2.727c0-0.43,0-0.894,0-1.299l1.299-0.032c0,0,0.064,0,0.064-0.088
		V15.296L223.584,15.24z"/>
	<path fill="#010101" d="M241.156,15.296c0-0.43,0-0.924,0-1.363h4.266c0.99,2.473,2.408,6.387,3.717,9.797h0.143
		c1.232-3.298,2.617-6.972,3.73-9.797h4.002c0,0.417,0,0.912,0,1.34l-1.199,0.065c0,0-0.066,0-0.066,0.099c0,3.223,0,7.159,0,10.557
		h1.297c0,0.407,0,0.891,0,1.298h-4.969c0-0.417,0-0.89,0-1.275l1.453,0.012c0.039,0.001,0.076-0.034,0.076-0.076
		c0-0.004,0-0.007,0-0.012c0-2.717,0-5.983-0.066-8.93h-0.143c-1.594,4.289-2.869,7.279-3.938,9.645h-1.275
		c-1.178-2.64-2.451-5.817-3.893-9.832h-0.164c0,3.012-0.09,6.224-0.121,9.148l1.672,0.066c0,0.407,0,0.892,0,1.297h-4.598
		c0-0.416,0-0.89,0-1.274l1.232-0.032c0.064,0,0.088,0,0.088-0.088c0-3.234,0.064-7.379,0.088-10.58L241.156,15.296z"/>
	<path fill="#010101" d="M269.23,15.24c0-0.417,0-0.89,0-1.297h2.781h2.684c0,0.418,0,0.892,0,1.297l-1.482,0.067c0,0,0,0,0,0.087
		l-0.068,10.579l1.586,0.066c0,0.428,0,0.889,0,1.321h-2.729h-2.715c0-0.43,0-0.894,0-1.299l1.385-0.066c0,0,0.066,0,0.066-0.087
		V15.296L269.23,15.24z"/>
	<path fill="#010101" d="M287.969,26.029c0.041,0.007,0.082-0.021,0.086-0.065c0.004-0.008,0.004-0.015,0-0.022V15.317h-1.385
		c0-0.418,0-0.889,0-1.275h3.398c2.023,2.948,4.719,7.027,6.764,10.205h0.121c0-2.947,0-5.917-0.088-8.863h-1.746
		c0-0.429,0-0.891,0-1.298h2.615h2.068c0,0.418,0,0.869,0,1.276l-1.1,0.066c0,0-0.068,0-0.068,0.097l-0.02,11.69
		c-0.543,0.194-1.117,0.291-1.695,0.286c-1.814-2.385-4.396-6.015-6.992-9.896h-0.143c0,2.804,0,5.498,0,8.324h1.836
		c0,0.408,0,0.892,0,1.32h-2.826h-1.957c0-0.417,0-0.891,0-1.297L287.969,26.029z"/>
	<path fill="#010101" d="M320.705,15.999c-0.021-0.116-0.082-0.223-0.166-0.307c-0.512-0.354-1.125-0.529-1.746-0.495
		c-1.057-0.014-2.076,0.379-2.85,1.099c-1.154,1.196-1.766,2.814-1.691,4.475c-0.113,1.474,0.359,2.933,1.318,4.058
		c0.842,0.922,2.051,1.429,3.299,1.385c0.758,0,1.297-0.207,1.297-0.373v-3.2h-1.957c0-0.429,0-0.924,0-1.341h5.422
		c0,0.406,0,0.912,0,1.341h-0.967c-0.066,0-0.078,0-0.078,0.076l-0.066,4.124c-1.188,0.534-2.49,0.775-3.793,0.704
		c-1.746,0.104-3.475-0.389-4.902-1.396c-1.504-1.246-2.342-3.119-2.268-5.07c-0.045-2.373,1.092-4.616,3.035-5.982
		c1.416-0.92,3.074-1.396,4.76-1.363c1.059-0.042,2.111,0.141,3.094,0.54c0.053,1.22,0.141,2.474,0.186,3.694
		c-0.52,0.077-1.1,0.122-1.605,0.165L320.705,15.999z"/>
	<path fill="#010101" d="M327.678,14.514h-0.596v-0.474h1.826v0.474h-0.605v1.706h-0.635L327.678,14.514z M329.426,14.042h0.813
		l0.475,1.265l0.473-1.265H332v2.2h-0.572v-1.429l0,0l-0.473,1.429h-0.449l-0.475-1.429l0,0v1.429h-0.627L329.426,14.042z"/>
	<path fill="#6BB345" d="M174.352,1h-12.722v31.188h9.15v-19.18h-3.023c-1.198,0.209-2.337-0.591-2.547-1.787
		c-0.21-1.195,0.59-2.336,1.786-2.545c0.251-0.043,0.509-0.043,0.759,0h10.568c1.215,0,2.197,0.984,2.197,2.199
		c0.004,0.575-0.227,1.125-0.637,1.529c-0.412,0.409-0.971,0.639-1.551,0.636h-2.902v8.171h0.361
		c7.182,0,11.461-3.826,11.461-10.227C187.209,7.96,185.955,1,174.352,1z"/>
	<path fill="#6BB345" d="M35.62,42.523h1.825c1.694,0,2.364,0.77,2.364,1.969s-1.101,1.969-2.354,1.969h-0.659v2.529h-1.243
		L35.62,42.523z M37.413,45.492c0.57,0.037,1.062-0.395,1.098-0.965c0-0.012,0-0.021,0.002-0.035c0.01-0.543-0.421-0.986-0.96-0.998
		c-0.047-0.002-0.094,0.002-0.14,0.008h-0.638v1.99H37.413L37.413,45.492z"/>
	<path fill="#6BB345" d="M46.991,42.523h3.463v1.035h-2.265v1.66h2.199v0.967h-2.199v1.781h2.299v1.023h-3.553L46.991,42.523z"/>
	<path fill="#6BB345" d="M58.031,42.523h2.045c1.562,0,2.199,0.848,2.199,1.869c0.003,0.777-0.508,1.463-1.253,1.684l1.837,2.408
		l-1.101,0.635l-1.77-2.516c-0.094-0.145-0.257-0.23-0.429-0.221h-0.373v2.584h-1.221L58.031,42.523z M59.989,45.416
		c0.537,0.066,1.026-0.314,1.093-0.852c0.006-0.049,0.008-0.1,0.007-0.15c0-0.615-0.483-0.936-1.099-0.936h-0.692v1.938H59.989
		L59.989,45.416z"/>
	<path fill="#6BB345" d="M70.205,47.691c0.323,0.238,0.702,0.391,1.098,0.441c0.514,0.055,0.975-0.318,1.029-0.83
		c0.004-0.035,0.006-0.07,0.006-0.105c0-1.285-2.65-0.736-2.65-2.945c0.035-1.082,0.938-1.932,2.019-1.896
		c0.061,0.002,0.122,0.006,0.181,0.016c0.646,0.018,1.274,0.203,1.825,0.541l-0.506,0.855c-0.362-0.248-0.783-0.395-1.221-0.43
		c-0.539,0-1.099,0.285-1.099,0.869c0,1.275,2.706,0.869,2.706,2.938c-0.012,1.104-0.916,1.99-2.022,1.98
		c-0.022,0-0.045-0.004-0.068-0.004c-0.621-0.004-1.228-0.174-1.76-0.494L70.205,47.691z"/>
	<path fill="#6BB345" d="M84.181,42.371c1.819-0.092,3.369,1.309,3.46,3.127c0.004,0.078,0.005,0.156,0.003,0.236
		c0.014,1.859-1.483,3.377-3.342,3.387c-0.041,0.004-0.082,0-0.123,0c-1.82,0.092-3.369-1.311-3.46-3.129
		c-0.004-0.078-0.005-0.156-0.003-0.234c0.005-1.877,1.531-3.395,3.409-3.389C84.144,42.369,84.162,42.369,84.181,42.371z
		 M84.181,48.131c1.25-0.033,2.237-1.076,2.203-2.326c-0.001-0.023-0.002-0.047-0.002-0.07c0.109-1.209-0.783-2.279-1.995-2.389
		c-0.069-0.006-0.137-0.008-0.206-0.008c-1.256,0.039-2.243,1.092-2.203,2.35c0,0.016,0.002,0.031,0.003,0.047
		c-0.109,1.209,0.782,2.281,1.993,2.389C84.042,48.129,84.112,48.131,84.181,48.131z"/>
	<path fill="#6BB345" d="M95.035,42.711l1.099-0.34l3.024,4.959l0,0l-0.055-4.807h1.199v6.27l-1.21,0.34l-2.946-4.926l0,0
		l0.088,4.771h-1.198V42.711z"/>
	<path fill="#6BB345" d="M108.087,42.711l1.1-0.34l3.024,4.959l0,0l-0.056-4.807h1.199l-0.056,6.27l-1.209,0.34l-2.948-4.926l0,0
		l0.089,4.771h-1.199L108.087,42.711z"/>
	<path fill="#6BB345" d="M121.14,42.523h3.464v1.035h-2.265v1.66h2.198v0.967h-2.198v1.781h2.297v1.023h-3.529L121.14,42.523z"/>
	<path fill="#6BB345" d="M132.224,42.523h1.199v5.443h2.441v1.023h-3.728L132.224,42.523z"/>
	<path fill="#6BB345" d="M151.953,47.691c0.323,0.238,0.702,0.391,1.1,0.441c0.512,0.055,0.973-0.318,1.027-0.83
		c0.004-0.035,0.006-0.07,0.005-0.105c0-1.285-2.661-0.736-2.661-2.945c0.033-1.082,0.939-1.932,2.019-1.896
		c0.06,0.002,0.12,0.006,0.18,0.016c0.646,0.018,1.275,0.203,1.826,0.541l-0.506,0.855c-0.363-0.248-0.783-0.395-1.221-0.43
		c-0.538,0-1.099,0.285-1.099,0.869c0,1.275,2.716,0.869,2.716,2.938c-0.012,1.104-0.916,1.99-2.021,1.98
		c-0.026,0-0.054-0.004-0.079-0.004c-0.619-0.004-1.228-0.174-1.76-0.494L151.953,47.691z"/>
	<path fill="#6BB345" d="M162.872,42.523h3.465v1.035h-2.266v1.66h2.2v0.967h-2.2v1.781h2.298v1.023h-3.563L162.872,42.523z"/>
	<path fill="#6BB345" d="M173.902,42.523h2.047c1.561,0,2.197,0.848,2.197,1.869c0.002,0.777-0.508,1.463-1.252,1.684l1.859,2.396
		l-1.102,0.646l-1.791-2.496c-0.098-0.141-0.258-0.223-0.432-0.219h-0.371v2.586h-1.223L173.902,42.523z M175.824,45.436
		c0.539,0.066,1.027-0.311,1.094-0.848c0.008-0.051,0.008-0.102,0.008-0.152c0-0.617-0.482-0.936-1.102-0.936h-0.689v1.936H175.824
		L175.824,45.436z"/>
	<path fill="#6BB345" d="M185.041,42.754l1.199-0.385l1.66,5.08l0,0l1.848-5.08l1.152,0.385l-2.461,6.213h-1.102L185.041,42.754z"/>
	<path fill="#6BB345" d="M198.027,42.523h1.199l-0.057,6.467h-1.197L198.027,42.523z"/>
	<path fill="#6BB345" d="M212.148,48.473c-0.605,0.414-1.324,0.633-2.057,0.627c-1.822,0.031-3.324-1.422-3.354-3.244
		c0-0.018,0-0.035,0-0.057c-0.092-1.775,1.273-3.291,3.051-3.381c0.082-0.006,0.166-0.006,0.248-0.004
		c0.77-0.008,1.516,0.258,2.111,0.746l-0.527,0.838c-0.445-0.35-0.988-0.543-1.553-0.551c-1.178,0.014-2.121,0.979-2.105,2.158
		c0,0.047,0.002,0.094,0.006,0.139c-0.045,1.197,0.881,2.211,2.08,2.275c0.57,0.027,1.137-0.119,1.625-0.416L212.148,48.473z"/>
	<path fill="#6BB345" d="M219.35,42.523h3.453v1.035h-2.266v1.66h2.199v0.967h-2.199v1.781h2.299v1.023h-3.52L219.35,42.523z"/>
	<path fill="#6BB345" d="M230.436,47.691c0.322,0.238,0.701,0.387,1.1,0.441c0.514,0.059,0.977-0.307,1.037-0.818
		c0.006-0.041,0.008-0.08,0.008-0.117c0-1.285-2.662-0.736-2.662-2.947c0.033-1.08,0.938-1.93,2.02-1.895
		c0.059,0.002,0.121,0.006,0.182,0.016c0.643,0.018,1.271,0.201,1.822,0.537l-0.504,0.859c-0.363-0.25-0.783-0.395-1.223-0.43
		c-0.537,0-1.098,0.285-1.098,0.869c0,1.275,2.715,0.865,2.715,2.936c-0.01,1.105-0.914,1.99-2.02,1.982
		c-0.029,0-0.061-0.004-0.09-0.006c-0.623-0.002-1.23-0.172-1.76-0.492L230.436,47.691z"/>
	<path fill="#6BB345" d="M241.266,47.725h1.385l-0.834,2.375h-0.605L241.266,47.725z"/>
	<path fill="#6BB345" d="M259.025,42.523h1.199l-0.098,6.443h-1.201L259.025,42.523z"/>
	<path fill="#6BB345" d="M267.955,42.711l1.102-0.34l3.021,4.959l0,0l-0.045-4.807h1.201l-0.057,6.27l-1.209,0.34l-2.949-4.926l0,0
		l0.092,4.771h-1.201L267.955,42.711z"/>
	<path fill="#6BB345" d="M286.166,48.473c-0.605,0.414-1.322,0.633-2.057,0.627c-1.82,0.031-3.322-1.422-3.354-3.244
		c0-0.018,0-0.035,0-0.057c-0.098-1.768,1.258-3.283,3.029-3.381c0.088-0.006,0.18-0.006,0.27-0.004
		c0.77-0.008,1.518,0.258,2.111,0.746l-0.529,0.838c-0.441-0.35-0.986-0.543-1.551-0.551c-1.176,0.018-2.115,0.99-2.094,2.17
		c0,0.041,0.002,0.082,0.006,0.127c-0.043,1.195,0.873,2.203,2.068,2.275c0.57,0.027,1.139-0.119,1.627-0.416L286.166,48.473z"/>
	<path fill="#6BB345" d="M293.521,47.725h1.254v1.254h-1.254V47.725z"/>
</g>
</svg>
