<?xml version="1.0" encoding="utf-8"?>
<!-- Generator: Adobe Illustrator 16.0.0, SVG Export Plug-In . SVG Version: 6.00 Build 0)  -->
<!DOCTYPE svg PUBLIC "-//W3C//DTD SVG 1.1//EN" "http://www.w3.org/Graphics/SVG/1.1/DTD/svg11.dtd">
<svg version="1.1" id="Layer_1" xmlns="http://www.w3.org/2000/svg" xmlns:xlink="http://www.w3.org/1999/xlink" x="0px" y="0px"
	 width="6.243px" height="5.939px" viewBox="0 0 6.243 5.939" enable-background="new 0 0 6.243 5.939" xml:space="preserve">
<title>search</title>
<path fill="#F1B32B" d="M6.104,5.755c-0.233,0.26-0.546,0.234-0.805,0c0,0-1.277-1.506-1.521-1.662
	c-0.886,0.723-2.167,0.695-3.018-0.07C-0.186,3.169-0.26,1.709,0.595,0.761c0.856-0.947,2.316-1.021,3.263-0.166
	c0.849,0.767,1.009,2.037,0.378,2.99c0.192,0.256,1.76,1.365,1.76,1.365C6.253,5.165,6.341,5.484,6.104,5.755z M3.75,2.198
	C3.733,1.82,3.565,1.465,3.283,1.213C2.965,0.93,2.558,0.814,2.166,0.858C1.827,0.895,1.5,1.052,1.253,1.323
	C0.726,1.9,0.768,2.797,1.347,3.324c0.004,0.003,0.008,0.007,0.012,0.01c0.59,0.525,1.493,0.48,2.028-0.101
	C3.643,2.952,3.774,2.578,3.75,2.198z"/>
</svg>
