<?xml version="1.0" encoding="utf-8"?>
<!-- Generator: Adobe Illustrator 16.0.0, SVG Export Plug-In . SVG Version: 6.00 Build 0)  -->
<!DOCTYPE svg PUBLIC "-//W3C//DTD SVG 1.1//EN" "http://www.w3.org/Graphics/SVG/1.1/DTD/svg11.dtd">
<svg version="1.1" id="Layer_1" xmlns="http://www.w3.org/2000/svg" xmlns:xlink="http://www.w3.org/1999/xlink" x="0px" y="0px"
	 width="6.005px" height="4.846px" viewBox="0 0 6.005 4.846" enable-background="new 0 0 6.005 4.846" xml:space="preserve">
<path fill="#F1B42B" d="M5.667,0.759c-0.118,0.033-0.24,0.058-0.364,0.069c0.244-0.155,0.429-0.387,0.529-0.657
	C5.712,0.233,5.588,0.29,5.46,0.341C5.329,0.393,5.193,0.43,5.057,0.45C4.942,0.338,4.81,0.244,4.665,0.176
	C4.511,0.104,4.342,0.067,4.172,0.07c-0.16,0-0.319,0.032-0.468,0.096C3.562,0.228,3.431,0.315,3.32,0.425
	C3.205,0.537,3.115,0.672,3.054,0.819C2.99,0.967,2.958,1.125,2.958,1.285c0,0.087,0.011,0.175,0.03,0.26
	C2.5,1.527,2.022,1.403,1.589,1.181C1.16,0.965,0.783,0.66,0.48,0.289C0.374,0.475,0.319,0.685,0.319,0.898
	c0,0.202,0.05,0.4,0.147,0.577C0.562,1.648,0.7,1.792,0.87,1.893c-0.104,0.001-0.208-0.012-0.309-0.04
	c-0.09-0.025-0.178-0.059-0.263-0.1l0,0C0.295,2.032,0.393,2.305,0.576,2.517c0.181,0.212,0.428,0.356,0.7,0.412
	C1.225,2.942,1.173,2.951,1.12,2.958c-0.056,0.005-0.11,0.005-0.166,0c-0.079,0-0.156-0.01-0.232-0.029
	c0.074,0.236,0.221,0.444,0.42,0.593c0.207,0.152,0.456,0.234,0.712,0.233c-0.42,0.349-0.949,0.542-1.494,0.542H0.207
	C0.16,4.3,0.112,4.3,0.065,4.297c0.275,0.172,0.573,0.309,0.884,0.402c0.319,0.098,0.651,0.146,0.984,0.146
	c0.511,0.01,1.018-0.096,1.481-0.309c0.41-0.192,0.779-0.466,1.082-0.803c0.291-0.324,0.518-0.699,0.668-1.105
	C5.314,2.24,5.394,1.83,5.398,1.416v-0.14C5.632,1.1,5.837,0.888,6.005,0.648C5.895,0.692,5.782,0.729,5.667,0.759z"/>
</svg>
