<?xml version="1.0" encoding="utf-8"?>
<!-- Generator: Adobe Illustrator 16.0.0, SVG Export Plug-In . SVG Version: 6.00 Build 0)  -->
<!DOCTYPE svg PUBLIC "-//W3C//DTD SVG 1.1//EN" "http://www.w3.org/Graphics/SVG/1.1/DTD/svg11.dtd">
<svg version="1.1" id="Layer_1" xmlns="http://www.w3.org/2000/svg" xmlns:xlink="http://www.w3.org/1999/xlink" x="0px" y="0px"
	 width="7px" height="9.842px" viewBox="0 0 7 9.842" enable-background="new 0 0 7 9.842" xml:space="preserve">
<path fill="#F2B42F" d="M1.311,4.131v-1.45C1.299,1.211,2.44,0.012,3.861,0c1.417-0.012,2.581,1.168,2.592,2.64H5.576
	c-0.059-0.976-0.868-1.713-1.81-1.652c-0.872,0.059-1.56,0.79-1.596,1.693v1.454"/>
<path fill="#F2B42F" d="M6.414,3.544H0.842C0.468,3.544,0,4.269,0,4.637v4.875C0,9.883,0.468,9.83,0.842,9.83h5.659
	c0.313,0,0.517,0.088,0.517-0.228V4.637C7.014,4.269,6.77,3.544,6.414,3.544z M4.037,7.896H3.222c-0.125,0-0.221,0.027-0.195-0.099
	l0.176-1.015L3.148,6.583C3.07,6.328,3.207,6.058,3.453,5.976C3.504,5.957,3.56,5.95,3.614,5.954
	c0.282,0.015,0.497,0.262,0.481,0.552c0,0.037-0.007,0.069-0.014,0.103L4.027,6.851l0.177,0.967
	C4.249,7.923,4.158,7.896,4.037,7.896z"/>
</svg>
