<?xml version="1.0" encoding="utf-8"?>
<!-- Generator: Adobe Illustrator 16.0.0, SVG Export Plug-In . SVG Version: 6.00 Build 0)  -->
<!DOCTYPE svg PUBLIC "-//W3C//DTD SVG 1.1//EN" "http://www.w3.org/Graphics/SVG/1.1/DTD/svg11.dtd">
<svg version="1.1" id="Layer_1" xmlns="http://www.w3.org/2000/svg" xmlns:xlink="http://www.w3.org/1999/xlink" x="0px" y="0px"
	 width="7.658px" height="6.539px" viewBox="2.171 1.231 7.658 6.539" enable-background="new 2.171 1.231 7.658 6.539"
	 xml:space="preserve">
<title>work_dn</title>
<line fill="#FFFFFF" x1="4.735" y1="1.668" x2="4.735" y2="2.278"/>
<line fill="#FFFFFF" x1="7.266" y1="2.278" x2="7.266" y2="1.668"/>
<path fill="#FFFFFF" d="M4.741,1.231h2.518c0.104,0,0.19,0.085,0.19,0.19v0.045c0,0.105-0.086,0.19-0.19,0.19H4.741
	c-0.105,0-0.19-0.085-0.19-0.19V1.421C4.551,1.316,4.636,1.231,4.741,1.231z"/>
<rect x="5.528" y="5.539" fill="#FFFFFF" width="0.943" height="0.943"/>
<path fill="#FFFFFF" d="M9.535,2.278H6.859L6.674,5.139h0.2v0.549L9.829,4.6V2.572C9.829,2.41,9.697,2.278,9.535,2.278L9.535,2.278z
	"/>
<path fill="#FFFFFF" d="M5.128,5.139h0.2L5.141,2.278H2.465c-0.162,0-0.294,0.132-0.294,0.294l0,0V4.6l2.957,1.089V5.139z"/>
<path fill="#FFFFFF" d="M6.872,6.115v0.767H5.128V6.115l-2.7-1v2.268c0,0.213,0.123,0.387,0.274,0.387h6.592
	c0.151,0,0.274-0.174,0.274-0.387V5.119L6.872,6.115z"/>
<polygon fill="#FFFFFF" points="6.273,5.139 6.472,2.07 5.528,2.07 5.727,5.139 "/>
</svg>
