<svg id="Layer_1" data-name="Layer 1" xmlns="http://www.w3.org/2000/svg" viewBox="0 0 90 90"><defs><style>.cls-1{fill:none;}.cls-1,.cls-2{stroke:#1e8900;stroke-miterlimit:10;stroke-width:2px;}.cls-2{fill:#1e8900;}</style></defs><title>work_dn</title><line class="cls-1" x1="32.35" y1="16.68" x2="32.35" y2="22.78"/><line class="cls-1" x1="57.65" y1="22.78" x2="57.65" y2="16.68"/><rect class="cls-2" x="30.51" y="12.31" width="28.98" height="4.25" rx="1.9" ry="1.9"/><rect class="cls-2" x="40.28" y="55.39" width="9.43" height="9.43"/><path class="cls-2" d="M80.35,22.78H53.59L51.74,51.39h2v5.49L83.29,46V25.72A2.94,2.94,0,0,0,80.35,22.78Z"/><path class="cls-2" d="M36.28,51.39h2L36.41,22.78H9.65a2.94,2.94,0,0,0-2.94,2.94V46L36.28,56.89Z"/><path class="cls-2" d="M53.72,61.15v7.67H36.28V61.15l-27-10V73.83c0,2.13,1.23,3.86,2.74,3.86H77.94c1.51,0,2.74-1.73,2.74-3.86V51.19Z"/><polygon class="cls-2" points="47.73 51.39 49.72 20.7 40.28 20.7 42.27 51.39 47.73 51.39"/></svg>