<svg id="Layer_1" data-name="Layer 1" xmlns="http://www.w3.org/2000/svg" viewBox="0 0 90 90"><defs><style>.cls-1{fill:none;stroke:#1e8900;stroke-miterlimit:10;stroke-width:2px;}</style></defs><title>work_up</title><path class="cls-1" d="M40.29,58.37,6.71,46V25.72a2.94,2.94,0,0,1,2.94-2.94H40.28"/><path class="cls-1" d="M49.72,22.78H80.35a2.94,2.94,0,0,1,2.94,2.94V46L49.72,58.37"/><path class="cls-1" d="M9.32,47.31V73.83c0,2.13,1.23,3.86,2.74,3.86H77.94c1.51,0,2.74-1.73,2.74-3.86V47.31"/><line class="cls-1" x1="32.35" y1="16.68" x2="32.35" y2="22.78"/><line class="cls-1" x1="57.65" y1="22.78" x2="57.65" y2="16.68"/><rect class="cls-1" x="30.51" y="12.31" width="28.98" height="4.25" rx="1.9" ry="1.9"/><rect class="cls-1" x="40.28" y="55.39" width="9.43" height="9.43"/><polygon class="cls-1" points="49.72 20.7 40.28 20.7 42.53 55.39 47.47 55.39 49.72 20.7"/></svg>